<svg xmlns="http://www.w3.org/2000/svg" class="symbol-icon skin-solar symbol-circle" viewBox="0 0 32 32" aria-hidden="true"><g class="premium-orbit" fill="none" stroke="#ff693f"><ellipse cx="16" cy="16" rx="15" ry="8" stroke-width="1"/><ellipse cx="16" cy="16" rx="15" ry="8" transform="rotate(65 16 16)" stroke-width=".6"/><circle cx="16" cy="16" r="14" stroke-width="2" opacity=".2"/></g><g class="premium-core"><g fill="none" stroke="#ffca5c" stroke-width="1.6" stroke-linecap="round" stroke-linejoin="round" transform="rotate(0 16 16)"><circle cx="16" cy="16" r="13" fill="#0a477c" stroke="#49d8ff" stroke-width="2.4"/><circle cx="16" cy="16" r="9" fill="#237ccb" stroke="#a6f2ff"/><path d="m18 5-8 13h6l-2 10 9-14h-6z" fill="#bdf8ff" stroke="none"/></g></g><g class="premium-sparks" fill="#ffca5c"><path d="M30 14q3 3 0 4-2-1 0-4Z"/><path d="M25.899494936611667 23.899494936611664q3 3 0 4-2-1 0-4Z"/><path d="M16 28q3 3 0 4-2-1 0-4Z"/><path d="M6.100505063388336 23.899494936611667q3 3 0 4-2-1 0-4Z"/><path d="M2 14q3 3 0 4-2-1 0-4Z"/><path d="M6.100505063388333 4.100505063388336q3 3 0 4-2-1 0-4Z"/><path d="M15.999999999999998 0q3 3 0 4-2-1 0-4Z"/><path d="M25.899494936611664 4.100505063388333q3 3 0 4-2-1 0-4Z"/></g></svg>