<svg xmlns="http://www.w3.org/2000/svg" class="symbol-icon skin-storm symbol-sword" viewBox="0 0 32 32" aria-hidden="true"><g class="arcana-aura" fill="none"><circle cx="16" cy="16" r="14" stroke="#b340ff" stroke-width="2" opacity=".45"/><ellipse cx="16" cy="16" rx="14" ry="10" stroke="#ff557e" stroke-width=".65"/><circle cx="16" cy="16" r="11.8" stroke="#85eeff" stroke-width=".5" stroke-dasharray="3 5"/></g><g class="arcana-core"><g fill="none" stroke="#bbf7ff" stroke-width="1.6" stroke-linecap="round" stroke-linejoin="round" transform="rotate(0 16 16)"><path d="m16 2 5 7-3 12h-4L11 9Z" fill="#cfedff" stroke="#4070a1"/><path d="M16 4v16" stroke="white"/><path d="m7 21 3-3 6 2 6-2 3 3-9 3Z" fill="#ffd56b" stroke="#a66c21"/><path d="M14 24h4v5h-4Z" fill="#7549bf" stroke="#422477"/><circle cx="16" cy="29" r="2" fill="#ffe080"/></g></g><g class="arcana-bolts" fill="none" stroke="#affaff" stroke-width=".85" stroke-linejoin="round"><path d="m8 2-4 6 3 2-5 7 4-1-2 7 5 6"/><path d="m25 2 3 7-3 3 5 4-3 4 2 6-6 4"/><path d="m10 3 4 2 5-3 4 3M9 29l5-2 5 3 4-3"/></g><g class="arcana-particles" fill="#ffcfec"><circle cx="3" cy="5" r=".9"/><circle cx="29" cy="11" r=".8"/><circle cx="6" cy="25" r=".7"/><circle cx="24" cy="28" r=".9"/><path d="m23 4 .6 1.4L25 6l-1.4.6L23 8l-.6-1.4L21 6l1.4-.6Z"/></g><g transform="rotate(0 16 16)"><path class="arcana-blade" d="m16 2 3 6-4 4 3 4-2 6m-5-13 2 5-1 4m9-9-2 5 1 4" fill="none" stroke="#e5fcff" stroke-width="1"/><path d="m8 21 8 2 8-2" fill="none" stroke="#ff8ad8" stroke-width="1.3"/></g></svg>